<svg xmlns="http://www.w3.org/2000/svg" xmlns:xlink="http://www.w3.org/1999/xlink" xmlns:lucid="lucid" width="940" height="573"><g transform="translate(-420 -46.99999999994924)" lucid:page-tab-id="HWEp-vi-RSFO"><path d="M0 0h1760v1360H0z" fill="#fff"/><path d="M940 200h400v400H940z" stroke="#333" stroke-width="2" fill="#fff"/><path d="M940 237.6h400M940 353.94h400" stroke="#333" stroke-width="2" fill="none"/><use xlink:href="#a" transform="matrix(1,0,0,1,948,208) translate(134.575 14.6)"/><use xlink:href="#b" transform="matrix(1,0,0,1,952,245.6) translate(0 43.3)"/><use xlink:href="#c" transform="matrix(1,0,0,1,952,245.6) translate(10.95 43.3)"/><use xlink:href="#d" transform="matrix(1,0,0,1,952,245.6) translate(96.85000000000001 43.3)"/><use xlink:href="#b" transform="matrix(1,0,0,1,952,245.6) translate(0 64.9)"/><use xlink:href="#e" transform="matrix(1,0,0,1,952,245.6) translate(10.95 64.9)"/><use xlink:href="#f" transform="matrix(1,0,0,1,952,245.6) translate(110.85000000000001 64.9)"/><use xlink:href="#g" transform="matrix(1,0,0,1,952,361.9371672972069) translate(0 43.00000000000001)"/><use xlink:href="#h" transform="matrix(1,0,0,1,952,361.9371672972069) translate(15.5 43.00000000000001)"/><use xlink:href="#i" transform="matrix(1,0,0,1,952,361.9371672972069) translate(120.35000000000001 43.00000000000001)"/><use xlink:href="#g" transform="matrix(1,0,0,1,952,361.9371672972069) translate(0 64.60000000000001)"/><use xlink:href="#j" transform="matrix(1,0,0,1,952,361.9371672972069) translate(15.5 64.60000000000001)"/><use xlink:href="#g" transform="matrix(1,0,0,1,952,361.9371672972069) translate(0 86.20000000000002)"/><use xlink:href="#k" transform="matrix(1,0,0,1,952,361.9371672972069) translate(15.5 86.20000000000002)"/><use xlink:href="#g" transform="matrix(1,0,0,1,952,361.9371672972069) translate(0 107.80000000000003)"/><use xlink:href="#l" transform="matrix(1,0,0,1,952,361.9371672972069) translate(15.5 107.80000000000003)"/><use xlink:href="#g" transform="matrix(1,0,0,1,952,361.9371672972069) translate(0 129.4)"/><use xlink:href="#m" transform="matrix(1,0,0,1,952,361.9371672972069) translate(15.5 129.4)"/><use xlink:href="#n" transform="matrix(1,0,0,1,952,361.9371672972069) translate(244.1 129.4)"/><use xlink:href="#g" transform="matrix(1,0,0,1,952,361.9371672972069) translate(0 151.00000000000003)"/><use xlink:href="#o" transform="matrix(1,0,0,1,952,361.9371672972069) translate(15.5 151.00000000000003)"/><use xlink:href="#n" transform="matrix(1,0,0,1,952,361.9371672972069) translate(310.15 151.00000000000003)"/><use xlink:href="#g" transform="matrix(1,0,0,1,952,361.9371672972069) translate(0 172.6)"/><use xlink:href="#p" transform="matrix(1,0,0,1,952,361.9371672972069) translate(15.5 172.6)"/><use xlink:href="#n" transform="matrix(1,0,0,1,952,361.9371672972069) translate(192.2 172.6)"/><use xlink:href="#g" transform="matrix(1,0,0,1,952,361.9371672972069) translate(0 194.20000000000002)"/><use xlink:href="#q" transform="matrix(1,0,0,1,952,361.9371672972069) translate(15.5 194.20000000000002)"/><use xlink:href="#r" transform="matrix(1,0,0,1,952,361.9371672972069) translate(108.30000000000001 194.20000000000002)"/><path d="M453.15 75a8 8 0 0 1 8-8h836.75a8 8 0 0 1 8 8v25.16a8 8 0 0 1-8 8H461.15a8 8 0 0 1-8-8z" stroke="#000" stroke-opacity="0" stroke-width="2" fill="#fff" fill-opacity="0"/><g><use xlink:href="#s" transform="matrix(1,0,0,1,457.1465527853429,70.99999999994924) translate(248.6279012345679 23.657777777777778)"/><use xlink:href="#t" transform="matrix(1,0,0,1,457.1465527853429,70.99999999994924) translate(357.74148148148146 23.657777777777778)"/><use xlink:href="#u" transform="matrix(1,0,0,1,457.1465527853429,70.99999999994924) translate(421.11185185185184 23.657777777777778)"/><use xlink:href="#v" transform="matrix(1,0,0,1,457.1465527853429,70.99999999994924) translate(498.24888888888887 23.657777777777778)"/></g><path d="M729.63 106.8H1039M729.65 106.8h-1.02M1038.96 106.8h1.03" stroke="#a9afb8" stroke-width="2" fill="none"/><path d="M453.15 116.16a8 8 0 0 1 8-8h837.7a8 8 0 0 1 8 8V119a8 8 0 0 1-8 8h-837.7a8 8 0 0 1-8-8z" stroke="#000" stroke-opacity="0" stroke-width="2" fill="#fff" fill-opacity="0"/><g><use xlink:href="#w" transform="matrix(1,0,0,1,457.1465527853434,112.15522395684805) translate(311.3965740740741 14.917037037037037)"/><use xlink:href="#x" transform="matrix(1,0,0,1,457.1465527853434,112.15522395684805) translate(363.19153292181073 14.917037037037037)"/><use xlink:href="#y" transform="matrix(1,0,0,1,457.1465527853434,112.15522395684805) translate(436.1888580246914 14.917037037037037)"/><use xlink:href="#z" transform="matrix(1,0,0,1,457.1465527853434,112.15522395684805) translate(448.6383436213992 14.917037037037037)"/><use xlink:href="#A" transform="matrix(1,0,0,1,457.1465527853434,112.15522395684805) translate(481.737829218107 14.917037037037037)"/><use xlink:href="#B" transform="matrix(1,0,0,1,457.1465527853434,112.15522395684805) translate(507.23165637860086 14.917037037037037)"/></g><path d="M440 260h360v177H440z" stroke="#333" stroke-width="2" fill="#fff"/><path d="M440 297.6h360m-360 59.1h360" stroke="#333" stroke-width="2" fill="none"/><g><use xlink:href="#C" transform="matrix(1,0,0,1,448,268) translate(140.575 14.6)"/></g><g><use xlink:href="#D" transform="matrix(1,0,0,1,452,305.6) translate(71.725 25.6)"/><use xlink:href="#E" transform="matrix(1,0,0,1,452,305.6) translate(156.575 25.6)"/></g><g><use xlink:href="#F" transform="matrix(1,0,0,1,452,364.70000000000005) translate(118.8 25.299999999999997)"/><use xlink:href="#G" transform="matrix(1,0,0,1,452,364.70000000000005) translate(134.3 25.299999999999997)"/><use xlink:href="#F" transform="matrix(1,0,0,1,452,364.70000000000005) translate(64.9 46.9)"/><use xlink:href="#H" transform="matrix(1,0,0,1,452,364.70000000000005) translate(80.4 46.9)"/><use xlink:href="#I" transform="matrix(1,0,0,1,452,364.70000000000005) translate(237.15 46.9)"/></g><path d="M801.5 348.5h121.12" stroke="#333" fill="none"/><path d="M801.5 349h-.5v-1h.5z" stroke="#333" stroke-width=".05" fill="#333"/><path d="M937.38 348.5l-14.26 4.63v-9.26z" stroke="#333" fill="#333"/><defs><path fill="#333" d="M76-208v77h127v40H76V0H24v-248h183v40H76" id="J"/><path fill="#333" d="M25-224v-37h50v37H25zM25 0v-190h50V0H25" id="K"/><path fill="#333" d="M25 0v-261h50V0H25" id="L"/><path fill="#333" d="M185-48c-13 30-37 53-82 52C43 2 14-33 14-96s30-98 90-98c62 0 83 45 84 108H66c0 31 8 55 39 56 18 0 30-7 34-22zm-45-69c5-46-57-63-70-21-2 6-4 13-4 21h74" id="M"/><path fill="#333" d="M140-251c80 0 125 45 125 126S219 4 139 4C58 4 15-44 15-125s44-126 125-126zm-1 214c52 0 73-35 73-88 0-50-21-86-72-86-52 0-73 35-73 86s22 88 72 88" id="N"/><path fill="#333" d="M135-150c-39-12-60 13-60 57V0H25l-1-190h47c2 13-1 29 3 40 6-28 27-53 61-41v41" id="O"/><path fill="#333" d="M195-6C206 82 75 100 31 46c-4-6-6-13-8-21l49-6c3 16 16 24 34 25 40 0 42-37 40-79-11 22-30 35-61 35-53 0-70-43-70-97 0-56 18-96 73-97 30 0 46 14 59 34l2-30h47zm-90-29c32 0 41-27 41-63 0-35-9-62-40-62-32 0-39 29-40 63 0 36 9 62 39 62" id="P"/><path fill="#333" d="M133-34C117-15 103 5 69 4 32 3 11-16 11-54c-1-60 55-63 116-61 1-26-3-47-28-47-18 1-26 9-28 27l-52-2c7-38 36-58 82-57s74 22 75 68l1 82c-1 14 12 18 25 15v27c-30 8-71 5-69-32zm-48 3c29 0 43-24 42-57-32 0-66-3-65 30 0 17 8 27 23 27" id="Q"/><path fill="#333" d="M135-194c87-1 58 113 63 194h-50c-7-57 23-157-34-157-59 0-34 97-39 157H25l-1-190h47c2 12-1 28 3 38 12-26 28-41 61-42" id="R"/><path fill="#333" d="M12 0v-35l95-120H19v-35h142v35L67-36h103V0H12" id="S"/><g id="a"><use transform="matrix(0.05,0,0,0.05,0,0)" xlink:href="#J"/><use transform="matrix(0.05,0,0,0.05,10.950000000000001,0)" xlink:href="#K"/><use transform="matrix(0.05,0,0,0.05,15.950000000000001,0)" xlink:href="#L"/><use transform="matrix(0.05,0,0,0.05,20.950000000000003,0)" xlink:href="#M"/><use transform="matrix(0.05,0,0,0.05,30.950000000000003,0)" xlink:href="#N"/><use transform="matrix(0.05,0,0,0.05,44.95,0)" xlink:href="#O"/><use transform="matrix(0.05,0,0,0.05,51.95,0)" xlink:href="#P"/><use transform="matrix(0.05,0,0,0.05,62.900000000000006,0)" xlink:href="#Q"/><use transform="matrix(0.05,0,0,0.05,72.9,0)" xlink:href="#R"/><use transform="matrix(0.05,0,0,0.05,83.85000000000001,0)" xlink:href="#K"/><use transform="matrix(0.05,0,0,0.05,88.85000000000001,0)" xlink:href="#S"/><use transform="matrix(0.05,0,0,0.05,97.85000000000001,0)" xlink:href="#M"/><use transform="matrix(0.05,0,0,0.05,107.85000000000001,0)" xlink:href="#O"/></g><path fill="#333" d="M16-82v-28h88v28H16" id="T"/><use transform="matrix(0.05,0,0,0.05,0,0)" xlink:href="#T" id="b"/><path fill="#333" d="M101-234c-31-9-42 10-38 44h38v23H63V0H32v-167H5v-23h27c-7-52 17-82 69-68v24" id="U"/><path fill="#333" d="M24-231v-30h32v30H24zM24 0v-190h32V0H24" id="V"/><path fill="#333" d="M24 0v-261h32V0H24" id="W"/><path fill="#333" d="M100-194c63 0 86 42 84 106H49c0 40 14 67 53 68 26 1 43-12 49-29l28 8c-11 28-37 45-77 45C44 4 14-33 15-96c1-61 26-98 85-98zm52 81c6-60-76-77-97-28-3 7-6 17-6 28h103" id="X"/><path fill="#333" d="M-5 72V49h209v23H-5" id="Y"/><path fill="#333" d="M59-47c-2 24 18 29 38 22v24C64 9 27 4 27-40v-127H5v-23h24l9-43h21v43h35v23H59v120" id="Z"/><path fill="#333" d="M179-190L93 31C79 59 56 82 12 73V49c39 6 53-20 64-50L1-190h34L92-34l54-156h33" id="aa"/><path fill="#333" d="M115-194c55 1 70 41 70 98S169 2 115 4C84 4 66-9 55-30l1 105H24l-1-265h31l2 30c10-21 28-34 59-34zm-8 174c40 0 45-34 45-75s-6-73-45-74c-42 0-51 32-51 76 0 43 10 73 51 73" id="ab"/><path fill="#333" d="M135-143c-3-34-86-38-87 0 15 53 115 12 119 90S17 21 10-45l28-5c4 36 97 45 98 0-10-56-113-15-118-90-4-57 82-63 122-42 12 7 21 19 24 35" id="ac"/><path fill="#333" d="M33-154v-36h34v36H33zM33 0v-36h34V0H33" id="ad"/><g id="c"><use transform="matrix(0.05,0,0,0.05,0,0)" xlink:href="#U"/><use transform="matrix(0.05,0,0,0.05,5,0)" xlink:href="#V"/><use transform="matrix(0.05,0,0,0.05,8.95,0)" xlink:href="#W"/><use transform="matrix(0.05,0,0,0.05,12.899999999999999,0)" xlink:href="#X"/><use transform="matrix(0.05,0,0,0.05,22.9,0)" xlink:href="#Y"/><use transform="matrix(0.05,0,0,0.05,32.9,0)" xlink:href="#Z"/><use transform="matrix(0.05,0,0,0.05,37.9,0)" xlink:href="#aa"/><use transform="matrix(0.05,0,0,0.05,46.9,0)" xlink:href="#ab"/><use transform="matrix(0.05,0,0,0.05,56.900000000000006,0)" xlink:href="#X"/><use transform="matrix(0.05,0,0,0.05,66.9,0)" xlink:href="#ac"/><use transform="matrix(0.05,0,0,0.05,75.9,0)" xlink:href="#ad"/></g><path fill="#333" d="M85-194c31 0 48 13 60 33l-1-100h32l1 261h-30c-2-10 0-23-3-31C134-8 116 4 85 4 32 4 16-35 15-94c0-66 23-100 70-100zm9 24c-40 0-46 34-46 75 0 40 6 74 45 74 42 0 51-32 51-76 0-42-9-74-50-73" id="ae"/><path fill="#333" d="M96-169c-40 0-48 33-48 73s9 75 48 75c24 0 41-14 43-38l32 2c-6 37-31 61-74 61-59 0-76-41-82-99-10-93 101-131 147-64 4 7 5 14 7 22l-32 3c-4-21-16-35-41-35" id="af"/><g id="d"><use transform="matrix(0.05,0,0,0.05,0,0)" xlink:href="#ae"/><use transform="matrix(0.05,0,0,0.05,10,0)" xlink:href="#V"/><use transform="matrix(0.05,0,0,0.05,13.949999999999998,0)" xlink:href="#af"/><use transform="matrix(0.05,0,0,0.05,22.95,0)" xlink:href="#Z"/></g><path fill="#333" d="M100-194c62-1 85 37 85 99 1 63-27 99-86 99S16-35 15-95c0-66 28-99 85-99zM99-20c44 1 53-31 53-75 0-43-8-75-51-75s-53 32-53 75 10 74 51 75" id="ag"/><path fill="#333" d="M114-163C36-179 61-72 57 0H25l-1-190h30c1 12-1 29 2 39 6-27 23-49 58-41v29" id="ah"/><path fill="#333" d="M141-36C126-15 110 5 73 4 37 3 15-17 15-53c-1-64 63-63 125-63 3-35-9-54-41-54-24 1-41 7-42 31l-33-3c5-37 33-52 76-52 45 0 72 20 72 64v82c-1 20 7 32 28 27v20c-31 9-61-2-59-35zM48-53c0 20 12 33 32 33 41-3 63-29 60-74-43 2-92-5-92 41" id="ai"/><path fill="#333" d="M106-169C34-169 62-67 57 0H25v-261h32l-1 103c12-21 28-36 61-36 89 0 53 116 60 194h-32v-121c2-32-8-49-39-48" id="aj"/><g id="e"><use transform="matrix(0.05,0,0,0.05,0,0)" xlink:href="#U"/><use transform="matrix(0.05,0,0,0.05,5,0)" xlink:href="#ag"/><use transform="matrix(0.05,0,0,0.05,15,0)" xlink:href="#W"/><use transform="matrix(0.05,0,0,0.05,18.95,0)" xlink:href="#ae"/><use transform="matrix(0.05,0,0,0.05,28.950000000000003,0)" xlink:href="#X"/><use transform="matrix(0.05,0,0,0.05,38.95,0)" xlink:href="#ah"/><use transform="matrix(0.05,0,0,0.05,44.900000000000006,0)" xlink:href="#Y"/><use transform="matrix(0.05,0,0,0.05,54.900000000000006,0)" xlink:href="#ab"/><use transform="matrix(0.05,0,0,0.05,64.9,0)" xlink:href="#ai"/><use transform="matrix(0.05,0,0,0.05,74.9,0)" xlink:href="#Z"/><use transform="matrix(0.05,0,0,0.05,79.9,0)" xlink:href="#aj"/><use transform="matrix(0.05,0,0,0.05,89.9,0)" xlink:href="#ad"/></g><path fill="#333" d="M117-194c89-4 53 116 60 194h-32v-121c0-31-8-49-39-48C34-167 62-67 57 0H25l-1-190h30c1 10-1 24 2 32 11-22 29-35 61-36" id="ak"/><path fill="#333" d="M177-190C167-65 218 103 67 71c-23-6-38-20-44-43l32-5c15 47 100 32 89-28v-30C133-14 115 1 83 1 29 1 15-40 15-95c0-56 16-97 71-98 29-1 48 16 59 35 1-10 0-23 2-32h30zM94-22c36 0 50-32 50-73 0-42-14-75-50-75-39 0-46 34-46 75s6 73 46 73" id="al"/><g id="f"><use transform="matrix(0.05,0,0,0.05,0,0)" xlink:href="#ac"/><use transform="matrix(0.05,0,0,0.05,9,0)" xlink:href="#Z"/><use transform="matrix(0.05,0,0,0.05,14,0)" xlink:href="#ah"/><use transform="matrix(0.05,0,0,0.05,19.95,0)" xlink:href="#V"/><use transform="matrix(0.05,0,0,0.05,23.9,0)" xlink:href="#ak"/><use transform="matrix(0.05,0,0,0.05,33.9,0)" xlink:href="#al"/></g><path fill="#333" d="M118-107v75H92v-75H18v-26h74v-75h26v75h74v26h-74" id="am"/><use transform="matrix(0.05,0,0,0.05,0,0)" xlink:href="#am" id="g"/><path fill="#333" d="M143 0L79-87 56-68V0H24v-261h32v163l83-92h37l-77 82L181 0h-38" id="an"/><path fill="#333" d="M210-169c-67 3-38 105-44 169h-31v-121c0-29-5-50-35-48C34-165 62-65 56 0H25l-1-190h30c1 10-1 24 2 32 10-44 99-50 107 0 11-21 27-35 58-36 85-2 47 119 55 194h-31v-121c0-29-5-49-35-48" id="ao"/><path fill="#333" d="M87 75C49 33 22-17 22-94c0-76 28-126 65-167h31c-38 41-64 92-64 168S80 34 118 75H87" id="ap"/><path fill="#333" d="M33-261c38 41 65 92 65 168S71 34 33 75H2C39 34 66-17 66-93S39-220 2-261h31" id="aq"/><g id="h"><use transform="matrix(0.05,0,0,0.05,0,0)" xlink:href="#ai"/><use transform="matrix(0.05,0,0,0.05,10,0)" xlink:href="#ac"/><use transform="matrix(0.05,0,0,0.05,19,0)" xlink:href="#an"/><use transform="matrix(0.05,0,0,0.05,28,0)" xlink:href="#Y"/><use transform="matrix(0.05,0,0,0.05,38,0)" xlink:href="#ak"/><use transform="matrix(0.05,0,0,0.05,48,0)" xlink:href="#ai"/><use transform="matrix(0.05,0,0,0.05,58,0)" xlink:href="#ao"/><use transform="matrix(0.05,0,0,0.05,72.95,0)" xlink:href="#X"/><use transform="matrix(0.05,0,0,0.05,82.95,0)" xlink:href="#ap"/><use transform="matrix(0.05,0,0,0.05,88.9,0)" xlink:href="#aq"/><use transform="matrix(0.05,0,0,0.05,94.85000000000001,0)" xlink:href="#ad"/></g><g id="i"><use transform="matrix(0.05,0,0,0.05,0,0)" xlink:href="#ac"/><use transform="matrix(0.05,0,0,0.05,9,0)" xlink:href="#Z"/><use transform="matrix(0.05,0,0,0.05,14,0)" xlink:href="#ah"/><use transform="matrix(0.05,0,0,0.05,19.95,0)" xlink:href="#V"/><use transform="matrix(0.05,0,0,0.05,23.9,0)" xlink:href="#ak"/><use transform="matrix(0.05,0,0,0.05,33.9,0)" xlink:href="#al"/></g><path fill="#333" d="M84 4C-5 8 30-112 23-190h32v120c0 31 7 50 39 49 72-2 45-101 50-169h31l1 190h-30c-1-10 1-25-2-33-11 22-28 36-60 37" id="ar"/><g id="j"><use transform="matrix(0.05,0,0,0.05,0,0)" xlink:href="#ai"/><use transform="matrix(0.05,0,0,0.05,10,0)" xlink:href="#ar"/><use transform="matrix(0.05,0,0,0.05,20,0)" xlink:href="#Z"/><use transform="matrix(0.05,0,0,0.05,25,0)" xlink:href="#ag"/><use transform="matrix(0.05,0,0,0.05,35,0)" xlink:href="#Y"/><use transform="matrix(0.05,0,0,0.05,45,0)" xlink:href="#ae"/><use transform="matrix(0.05,0,0,0.05,55,0)" xlink:href="#X"/><use transform="matrix(0.05,0,0,0.05,65,0)" xlink:href="#W"/><use transform="matrix(0.05,0,0,0.05,68.95,0)" xlink:href="#X"/><use transform="matrix(0.05,0,0,0.05,78.95,0)" xlink:href="#Z"/><use transform="matrix(0.05,0,0,0.05,83.95,0)" xlink:href="#X"/><use transform="matrix(0.05,0,0,0.05,93.95,0)" xlink:href="#ap"/><use transform="matrix(0.05,0,0,0.05,99.9,0)" xlink:href="#aq"/></g><path fill="#333" d="M9 0v-24l116-142H16v-24h144v24L44-24h123V0H9" id="as"/><g id="k"><use transform="matrix(0.05,0,0,0.05,0,0)" xlink:href="#ai"/><use transform="matrix(0.05,0,0,0.05,10,0)" xlink:href="#ar"/><use transform="matrix(0.05,0,0,0.05,20,0)" xlink:href="#Z"/><use transform="matrix(0.05,0,0,0.05,25,0)" xlink:href="#ag"/><use transform="matrix(0.05,0,0,0.05,35,0)" xlink:href="#Y"/><use transform="matrix(0.05,0,0,0.05,45,0)" xlink:href="#ag"/><use transform="matrix(0.05,0,0,0.05,55,0)" xlink:href="#ah"/><use transform="matrix(0.05,0,0,0.05,60.95,0)" xlink:href="#al"/><use transform="matrix(0.05,0,0,0.05,70.95,0)" xlink:href="#ai"/><use transform="matrix(0.05,0,0,0.05,80.95,0)" xlink:href="#ak"/><use transform="matrix(0.05,0,0,0.05,90.95,0)" xlink:href="#V"/><use transform="matrix(0.05,0,0,0.05,94.9,0)" xlink:href="#as"/><use transform="matrix(0.05,0,0,0.05,103.9,0)" xlink:href="#X"/><use transform="matrix(0.05,0,0,0.05,113.9,0)" xlink:href="#ap"/><use transform="matrix(0.05,0,0,0.05,119.85000000000001,0)" xlink:href="#aq"/></g><g id="l"><use transform="matrix(0.05,0,0,0.05,0,0)" xlink:href="#ai"/><use transform="matrix(0.05,0,0,0.05,10,0)" xlink:href="#ar"/><use transform="matrix(0.05,0,0,0.05,20,0)" xlink:href="#Z"/><use transform="matrix(0.05,0,0,0.05,25,0)" xlink:href="#ag"/><use transform="matrix(0.05,0,0,0.05,35,0)" xlink:href="#Y"/><use transform="matrix(0.05,0,0,0.05,45,0)" xlink:href="#ah"/><use transform="matrix(0.05,0,0,0.05,50.95,0)" xlink:href="#X"/><use transform="matrix(0.05,0,0,0.05,60.95,0)" xlink:href="#ak"/><use transform="matrix(0.05,0,0,0.05,70.95,0)" xlink:href="#ai"/><use transform="matrix(0.05,0,0,0.05,80.95,0)" xlink:href="#ao"/><use transform="matrix(0.05,0,0,0.05,95.9,0)" xlink:href="#X"/><use transform="matrix(0.05,0,0,0.05,105.9,0)" xlink:href="#ap"/><use transform="matrix(0.05,0,0,0.05,111.85000000000001,0)" xlink:href="#aq"/></g><g id="m"><use transform="matrix(0.05,0,0,0.05,0,0)" xlink:href="#ae"/><use transform="matrix(0.05,0,0,0.05,10,0)" xlink:href="#X"/><use transform="matrix(0.05,0,0,0.05,20,0)" xlink:href="#W"/><use transform="matrix(0.05,0,0,0.05,23.95,0)" xlink:href="#X"/><use transform="matrix(0.05,0,0,0.05,33.95,0)" xlink:href="#Z"/><use transform="matrix(0.05,0,0,0.05,38.95,0)" xlink:href="#X"/><use transform="matrix(0.05,0,0,0.05,48.95,0)" xlink:href="#Y"/><use transform="matrix(0.05,0,0,0.05,58.95,0)" xlink:href="#U"/><use transform="matrix(0.05,0,0,0.05,63.95,0)" xlink:href="#V"/><use transform="matrix(0.05,0,0,0.05,67.9,0)" xlink:href="#W"/><use transform="matrix(0.05,0,0,0.05,71.85000000000001,0)" xlink:href="#X"/><use transform="matrix(0.05,0,0,0.05,81.85000000000001,0)" xlink:href="#ac"/><use transform="matrix(0.05,0,0,0.05,90.85000000000001,0)" xlink:href="#ap"/><use transform="matrix(0.05,0,0,0.05,96.80000000000001,0)" xlink:href="#U"/><use transform="matrix(0.05,0,0,0.05,101.80000000000001,0)" xlink:href="#V"/><use transform="matrix(0.05,0,0,0.05,105.75,0)" xlink:href="#W"/><use transform="matrix(0.05,0,0,0.05,109.7,0)" xlink:href="#X"/><use transform="matrix(0.05,0,0,0.05,119.7,0)" xlink:href="#ac"/><use transform="matrix(0.05,0,0,0.05,128.70000000000002,0)" xlink:href="#Y"/><use transform="matrix(0.05,0,0,0.05,138.70000000000002,0)" xlink:href="#Z"/><use transform="matrix(0.05,0,0,0.05,143.70000000000002,0)" xlink:href="#ag"/><use transform="matrix(0.05,0,0,0.05,153.70000000000002,0)" xlink:href="#Y"/><use transform="matrix(0.05,0,0,0.05,163.70000000000002,0)" xlink:href="#ae"/><use transform="matrix(0.05,0,0,0.05,173.70000000000002,0)" xlink:href="#X"/><use transform="matrix(0.05,0,0,0.05,183.70000000000002,0)" xlink:href="#W"/><use transform="matrix(0.05,0,0,0.05,187.65,0)" xlink:href="#X"/><use transform="matrix(0.05,0,0,0.05,197.65,0)" xlink:href="#Z"/><use transform="matrix(0.05,0,0,0.05,202.65,0)" xlink:href="#X"/><use transform="matrix(0.05,0,0,0.05,212.65,0)" xlink:href="#aq"/><use transform="matrix(0.05,0,0,0.05,218.60000000000002,0)" xlink:href="#ad"/></g><g id="n"><use transform="matrix(0.05,0,0,0.05,0,0)" xlink:href="#W"/><use transform="matrix(0.05,0,0,0.05,3.95,0)" xlink:href="#V"/><use transform="matrix(0.05,0,0,0.05,7.9,0)" xlink:href="#ac"/><use transform="matrix(0.05,0,0,0.05,16.9,0)" xlink:href="#Z"/></g><path fill="#333" d="M115-194c53 0 69 39 70 98 0 66-23 100-70 100C84 3 66-7 56-30L54 0H23l1-261h32v101c10-23 28-34 59-34zm-8 174c40 0 45-34 45-75 0-40-5-75-45-74-42 0-51 32-51 76 0 43 10 73 51 73" id="at"/><path fill="#333" d="M141 0L90-78 38 0H4l68-98-65-92h35l48 74 47-74h35l-64 92 68 98h-35" id="au"/><g id="o"><use transform="matrix(0.05,0,0,0.05,0,0)" xlink:href="#U"/><use transform="matrix(0.05,0,0,0.05,5,0)" xlink:href="#V"/><use transform="matrix(0.05,0,0,0.05,8.95,0)" xlink:href="#ak"/><use transform="matrix(0.05,0,0,0.05,18.95,0)" xlink:href="#ae"/><use transform="matrix(0.05,0,0,0.05,28.950000000000003,0)" xlink:href="#Y"/><use transform="matrix(0.05,0,0,0.05,38.95,0)" xlink:href="#U"/><use transform="matrix(0.05,0,0,0.05,43.95,0)" xlink:href="#V"/><use transform="matrix(0.05,0,0,0.05,47.900000000000006,0)" xlink:href="#W"/><use transform="matrix(0.05,0,0,0.05,51.85,0)" xlink:href="#X"/><use transform="matrix(0.05,0,0,0.05,61.85,0)" xlink:href="#ac"/><use transform="matrix(0.05,0,0,0.05,70.85000000000001,0)" xlink:href="#Y"/><use transform="matrix(0.05,0,0,0.05,80.85000000000001,0)" xlink:href="#at"/><use transform="matrix(0.05,0,0,0.05,90.85000000000001,0)" xlink:href="#aa"/><use transform="matrix(0.05,0,0,0.05,99.85000000000001,0)" xlink:href="#Y"/><use transform="matrix(0.05,0,0,0.05,109.85000000000001,0)" xlink:href="#X"/><use transform="matrix(0.05,0,0,0.05,119.85000000000001,0)" xlink:href="#au"/><use transform="matrix(0.05,0,0,0.05,128.85000000000002,0)" xlink:href="#Z"/><use transform="matrix(0.05,0,0,0.05,133.85000000000002,0)" xlink:href="#X"/><use transform="matrix(0.05,0,0,0.05,143.85000000000002,0)" xlink:href="#ak"/><use transform="matrix(0.05,0,0,0.05,153.85000000000002,0)" xlink:href="#ac"/><use transform="matrix(0.05,0,0,0.05,162.85000000000002,0)" xlink:href="#V"/><use transform="matrix(0.05,0,0,0.05,166.8,0)" xlink:href="#ag"/><use transform="matrix(0.05,0,0,0.05,176.8,0)" xlink:href="#ak"/><use transform="matrix(0.05,0,0,0.05,186.8,0)" xlink:href="#ap"/><use transform="matrix(0.05,0,0,0.05,192.75,0)" xlink:href="#X"/><use transform="matrix(0.05,0,0,0.05,202.75,0)" xlink:href="#au"/><use transform="matrix(0.05,0,0,0.05,211.75,0)" xlink:href="#Z"/><use transform="matrix(0.05,0,0,0.05,216.75,0)" xlink:href="#X"/><use transform="matrix(0.05,0,0,0.05,226.75,0)" xlink:href="#ak"/><use transform="matrix(0.05,0,0,0.05,236.75,0)" xlink:href="#ac"/><use transform="matrix(0.05,0,0,0.05,245.75,0)" xlink:href="#V"/><use transform="matrix(0.05,0,0,0.05,249.69999999999996,0)" xlink:href="#ag"/><use transform="matrix(0.05,0,0,0.05,259.7,0)" xlink:href="#ak"/><use transform="matrix(0.05,0,0,0.05,269.7,0)" xlink:href="#ac"/><use transform="matrix(0.05,0,0,0.05,278.7,0)" xlink:href="#aq"/><use transform="matrix(0.05,0,0,0.05,284.65,0)" xlink:href="#ad"/></g><g id="p"><use transform="matrix(0.05,0,0,0.05,0,0)" xlink:href="#U"/><use transform="matrix(0.05,0,0,0.05,5,0)" xlink:href="#V"/><use transform="matrix(0.05,0,0,0.05,8.95,0)" xlink:href="#ak"/><use transform="matrix(0.05,0,0,0.05,18.95,0)" xlink:href="#ae"/><use transform="matrix(0.05,0,0,0.05,28.950000000000003,0)" xlink:href="#Y"/><use transform="matrix(0.05,0,0,0.05,38.95,0)" xlink:href="#U"/><use transform="matrix(0.05,0,0,0.05,43.95,0)" xlink:href="#V"/><use transform="matrix(0.05,0,0,0.05,47.900000000000006,0)" xlink:href="#W"/><use transform="matrix(0.05,0,0,0.05,51.85,0)" xlink:href="#X"/><use transform="matrix(0.05,0,0,0.05,61.85,0)" xlink:href="#ac"/><use transform="matrix(0.05,0,0,0.05,70.85000000000001,0)" xlink:href="#Y"/><use transform="matrix(0.05,0,0,0.05,80.85000000000001,0)" xlink:href="#Z"/><use transform="matrix(0.05,0,0,0.05,85.85000000000001,0)" xlink:href="#ag"/><use transform="matrix(0.05,0,0,0.05,95.85000000000001,0)" xlink:href="#Y"/><use transform="matrix(0.05,0,0,0.05,105.85000000000001,0)" xlink:href="#ae"/><use transform="matrix(0.05,0,0,0.05,115.85000000000001,0)" xlink:href="#X"/><use transform="matrix(0.05,0,0,0.05,125.85000000000001,0)" xlink:href="#W"/><use transform="matrix(0.05,0,0,0.05,129.8,0)" xlink:href="#X"/><use transform="matrix(0.05,0,0,0.05,139.8,0)" xlink:href="#Z"/><use transform="matrix(0.05,0,0,0.05,144.8,0)" xlink:href="#X"/><use transform="matrix(0.05,0,0,0.05,154.8,0)" xlink:href="#ap"/><use transform="matrix(0.05,0,0,0.05,160.75,0)" xlink:href="#aq"/><use transform="matrix(0.05,0,0,0.05,166.7,0)" xlink:href="#ad"/></g><g id="q"><use transform="matrix(0.05,0,0,0.05,0,0)" xlink:href="#aj"/><use transform="matrix(0.05,0,0,0.05,10,0)" xlink:href="#ai"/><use transform="matrix(0.05,0,0,0.05,20,0)" xlink:href="#ac"/><use transform="matrix(0.05,0,0,0.05,29,0)" xlink:href="#Y"/><use transform="matrix(0.05,0,0,0.05,39,0)" xlink:href="#U"/><use transform="matrix(0.05,0,0,0.05,44,0)" xlink:href="#V"/><use transform="matrix(0.05,0,0,0.05,47.95,0)" xlink:href="#W"/><use transform="matrix(0.05,0,0,0.05,51.900000000000006,0)" xlink:href="#X"/><use transform="matrix(0.05,0,0,0.05,61.900000000000006,0)" xlink:href="#ac"/><use transform="matrix(0.05,0,0,0.05,70.9,0)" xlink:href="#ap"/><use transform="matrix(0.05,0,0,0.05,76.85000000000001,0)" xlink:href="#aq"/><use transform="matrix(0.05,0,0,0.05,82.80000000000001,0)" xlink:href="#ad"/></g><g id="r"><use transform="matrix(0.05,0,0,0.05,0,0)" xlink:href="#at"/><use transform="matrix(0.05,0,0,0.05,10,0)" xlink:href="#ag"/><use transform="matrix(0.05,0,0,0.05,20,0)" xlink:href="#ag"/><use transform="matrix(0.05,0,0,0.05,30,0)" xlink:href="#W"/></g><path fill="#a9afb8" d="M140-251c80 0 125 45 125 126S219 4 139 4C58 4 15-44 15-125s44-126 125-126zm-1 214c52 0 73-35 73-88 0-50-21-86-72-86-52 0-73 35-73 86s22 88 72 88" id="av"/><path fill="#a9afb8" d="M135-150c-39-12-60 13-60 57V0H25l-1-190h47c2 13-1 29 3 40 6-28 27-53 61-41v41" id="aw"/><path fill="#a9afb8" d="M195-6C206 82 75 100 31 46c-4-6-6-13-8-21l49-6c3 16 16 24 34 25 40 0 42-37 40-79-11 22-30 35-61 35-53 0-70-43-70-97 0-56 18-96 73-97 30 0 46 14 59 34l2-30h47zm-90-29c32 0 41-27 41-63 0-35-9-62-40-62-32 0-39 29-40 63 0 36 9 62 39 62" id="ax"/><path fill="#a9afb8" d="M133-34C117-15 103 5 69 4 32 3 11-16 11-54c-1-60 55-63 116-61 1-26-3-47-28-47-18 1-26 9-28 27l-52-2c7-38 36-58 82-57s74 22 75 68l1 82c-1 14 12 18 25 15v27c-30 8-71 5-69-32zm-48 3c29 0 43-24 42-57-32 0-66-3-65 30 0 17 8 27 23 27" id="ay"/><path fill="#a9afb8" d="M135-194c87-1 58 113 63 194h-50c-7-57 23-157-34-157-59 0-34 97-39 157H25l-1-190h47c2 12-1 28 3 38 12-26 28-41 61-42" id="az"/><path fill="#a9afb8" d="M25-224v-37h50v37H25zM25 0v-190h50V0H25" id="aA"/><path fill="#a9afb8" d="M182 0l-62-99L58 0H3l86-130-79-118h55l55 88 55-88h55l-75 118L237 0h-55" id="aB"/><g id="s"><use transform="matrix(0.0728395061728395,0,0,0.0728395061728395,0,0)" xlink:href="#av"/><use transform="matrix(0.0728395061728395,0,0,0.0728395061728395,20.39506172839506,0)" xlink:href="#aw"/><use transform="matrix(0.0728395061728395,0,0,0.0728395061728395,30.592592592592588,0)" xlink:href="#ax"/><use transform="matrix(0.0728395061728395,0,0,0.0728395061728395,46.54444444444444,0)" xlink:href="#ay"/><use transform="matrix(0.0728395061728395,0,0,0.0728395061728395,61.112345679012336,0)" xlink:href="#az"/><use transform="matrix(0.0728395061728395,0,0,0.0728395061728395,77.06419753086419,0)" xlink:href="#aA"/><use transform="matrix(0.0728395061728395,0,0,0.0728395061728395,84.34814814814814,0)" xlink:href="#aB"/></g><path fill="#a9afb8" d="M238-95c0 69-44 99-111 99C63 4 22-25 22-93v-155h51v151c-1 38 19 59 55 60 90 1 49-130 58-211h52v153" id="aC"/><path fill="#a9afb8" d="M230 0l2-204L168 0h-37L68-204 70 0H24v-248h70l56 185 57-185h69V0h-46" id="aD"/><path fill="#a9afb8" d="M24 0v-248h52v208h133V0H24" id="aE"/><g id="t"><use transform="matrix(0.0728395061728395,0,0,0.0728395061728395,0,0)" xlink:href="#aC"/><use transform="matrix(0.0728395061728395,0,0,0.0728395061728395,18.86543209876543,0)" xlink:href="#aD"/><use transform="matrix(0.0728395061728395,0,0,0.0728395061728395,40.644444444444446,0)" xlink:href="#aE"/></g><path fill="#a9afb8" d="M67-125c0 53 21 87 73 88 37 1 54-22 65-47l45 17C233-25 199 4 140 4 58 4 20-42 15-125 8-235 124-281 211-232c18 10 29 29 36 50l-46 12c-8-25-30-41-62-41-52 0-71 34-72 86" id="aF"/><path fill="#a9afb8" d="M25 0v-261h50V0H25" id="aG"/><path fill="#a9afb8" d="M137-138c1-29-70-34-71-4 15 46 118 7 119 86 1 83-164 76-172 9l43-7c4 19 20 25 44 25 33 8 57-30 24-41C81-84 22-81 20-136c-2-80 154-74 161-7" id="aH"/><g id="u"><use transform="matrix(0.0728395061728395,0,0,0.0728395061728395,0,0)" xlink:href="#aF"/><use transform="matrix(0.0728395061728395,0,0,0.0728395061728395,18.86543209876543,0)" xlink:href="#aG"/><use transform="matrix(0.0728395061728395,0,0,0.0728395061728395,26.14938271604938,0)" xlink:href="#ay"/><use transform="matrix(0.0728395061728395,0,0,0.0728395061728395,40.717283950617286,0)" xlink:href="#aH"/><use transform="matrix(0.0728395061728395,0,0,0.0728395061728395,55.28518518518518,0)" xlink:href="#aH"/></g><path fill="#a9afb8" d="M24-248c120-7 223 5 221 122C244-46 201 0 124 0H24v-248zM76-40c74 7 117-18 117-86 0-67-45-88-117-82v168" id="aI"/><path fill="#a9afb8" d="M220-157c-53 9-28 100-34 157h-49v-107c1-27-5-49-29-50C55-147 81-57 75 0H25l-1-190h47c2 12-1 28 3 38 10-53 101-56 108 0 13-22 24-43 59-42 82 1 51 116 57 194h-49v-107c-1-25-5-48-29-50" id="aJ"/><g id="v"><use transform="matrix(0.0728395061728395,0,0,0.0728395061728395,0,0)" xlink:href="#aI"/><use transform="matrix(0.0728395061728395,0,0,0.0728395061728395,18.86543209876543,0)" xlink:href="#aA"/><use transform="matrix(0.0728395061728395,0,0,0.0728395061728395,26.14938271604938,0)" xlink:href="#ay"/><use transform="matrix(0.0728395061728395,0,0,0.0728395061728395,40.717283950617286,0)" xlink:href="#ax"/><use transform="matrix(0.0728395061728395,0,0,0.0728395061728395,56.66913580246913,0)" xlink:href="#aw"/><use transform="matrix(0.0728395061728395,0,0,0.0728395061728395,66.86666666666666,0)" xlink:href="#ay"/><use transform="matrix(0.0728395061728395,0,0,0.0728395061728395,81.43456790123457,0)" xlink:href="#aJ"/></g><path fill="#a9afb8" d="M205 0l-28-72H64L36 0H1l101-248h38L239 0h-34zm-38-99l-47-123c-12 45-31 82-46 123h93" id="aK"/><path fill="#a9afb8" d="M117-194c89-4 53 116 60 194h-32v-121c0-31-8-49-39-48C34-167 62-67 57 0H25l-1-190h30c1 10-1 24 2 32 11-22 29-35 61-36" id="aL"/><path fill="#a9afb8" d="M177-190C167-65 218 103 67 71c-23-6-38-20-44-43l32-5c15 47 100 32 89-28v-30C133-14 115 1 83 1 29 1 15-40 15-95c0-56 16-97 71-98 29-1 48 16 59 35 1-10 0-23 2-32h30zM94-22c36 0 50-32 50-73 0-42-14-75-50-75-39 0-46 34-46 75s6 73 46 73" id="aM"/><path fill="#a9afb8" d="M100-194c63 0 86 42 84 106H49c0 40 14 67 53 68 26 1 43-12 49-29l28 8c-11 28-37 45-77 45C44 4 14-33 15-96c1-61 26-98 85-98zm52 81c6-60-76-77-97-28-3 7-6 17-6 28h103" id="aN"/><path fill="#a9afb8" d="M24 0v-261h32V0H24" id="aO"/><path fill="#a9afb8" d="M100-194c62-1 85 37 85 99 1 63-27 99-86 99S16-35 15-95c0-66 28-99 85-99zM99-20c44 1 53-31 53-75 0-43-8-75-51-75s-53 32-53 75 10 74 51 75" id="aP"/><g id="w"><use transform="matrix(0.04248971193415638,0,0,0.04248971193415638,0,0)" xlink:href="#aK"/><use transform="matrix(0.04248971193415638,0,0,0.04248971193415638,10.19753086419753,0)" xlink:href="#aL"/><use transform="matrix(0.04248971193415638,0,0,0.04248971193415638,18.695473251028805,0)" xlink:href="#aM"/><use transform="matrix(0.04248971193415638,0,0,0.04248971193415638,27.193415637860078,0)" xlink:href="#aN"/><use transform="matrix(0.04248971193415638,0,0,0.04248971193415638,35.691358024691354,0)" xlink:href="#aO"/><use transform="matrix(0.04248971193415638,0,0,0.04248971193415638,39.048045267489705,0)" xlink:href="#aP"/></g><path fill="#a9afb8" d="M160-131c35 5 61 23 61 61C221 17 115-2 30 0v-248c76 3 177-17 177 60 0 33-19 50-47 57zm-97-11c50-1 110 9 110-42 0-47-63-36-110-37v79zm0 115c55-2 124 14 124-45 0-56-70-42-124-44v89" id="aQ"/><path fill="#a9afb8" d="M141-36C126-15 110 5 73 4 37 3 15-17 15-53c-1-64 63-63 125-63 3-35-9-54-41-54-24 1-41 7-42 31l-33-3c5-37 33-52 76-52 45 0 72 20 72 64v82c-1 20 7 32 28 27v20c-31 9-61-2-59-35zM48-53c0 20 12 33 32 33 41-3 63-29 60-74-43 2-92-5-92 41" id="aR"/><path fill="#a9afb8" d="M114-163C36-179 61-72 57 0H25l-1-190h30c1 12-1 29 2 39 6-27 23-49 58-41v29" id="aS"/><path fill="#a9afb8" d="M24-231v-30h32v30H24zM24 0v-190h32V0H24" id="aT"/><path fill="#a9afb8" d="M96-169c-40 0-48 33-48 73s9 75 48 75c24 0 41-14 43-38l32 2c-6 37-31 61-74 61-59 0-76-41-82-99-10-93 101-131 147-64 4 7 5 14 7 22l-32 3c-4-21-16-35-41-35" id="aU"/><path fill="#a9afb8" d="M59-47c-2 24 18 29 38 22v24C64 9 27 4 27-40v-127H5v-23h24l9-43h21v43h35v23H59v120" id="aV"/><g id="x"><use transform="matrix(0.04248971193415638,0,0,0.04248971193415638,0,0)" xlink:href="#aQ"/><use transform="matrix(0.04248971193415638,0,0,0.04248971193415638,10.19753086419753,0)" xlink:href="#aR"/><use transform="matrix(0.04248971193415638,0,0,0.04248971193415638,18.695473251028805,0)" xlink:href="#aS"/><use transform="matrix(0.04248971193415638,0,0,0.04248971193415638,23.751748971193415,0)" xlink:href="#aT"/><use transform="matrix(0.04248971193415638,0,0,0.04248971193415638,27.10843621399177,0)" xlink:href="#aU"/><use transform="matrix(0.04248971193415638,0,0,0.04248971193415638,34.75658436213992,0)" xlink:href="#aR"/><use transform="matrix(0.04248971193415638,0,0,0.04248971193415638,43.254526748971195,0)" xlink:href="#aL"/><use transform="matrix(0.04248971193415638,0,0,0.04248971193415638,51.752469135802464,0)" xlink:href="#aV"/><use transform="matrix(0.04248971193415638,0,0,0.04248971193415638,56.001440329218106,0)" xlink:href="#aN"/></g><path fill="#a9afb8" d="M32 76v-337h29V76H32" id="aW"/><use transform="matrix(0.04248971193415638,0,0,0.04248971193415638,0,0)" xlink:href="#aW" id="y"/><path fill="#a9afb8" d="M240 0l2-218c-23 76-54 145-80 218h-23L58-218 59 0H30v-248h44l77 211c21-75 51-140 76-211h43V0h-30" id="aX"/><path fill="#a9afb8" d="M179-190L93 31C79 59 56 82 12 73V49c39 6 53-20 64-50L1-190h34L92-34l54-156h33" id="aY"/><g id="z"><use transform="matrix(0.04248971193415638,0,0,0.04248971193415638,0,0)" xlink:href="#aX"/><use transform="matrix(0.04248971193415638,0,0,0.04248971193415638,12.704423868312757,0)" xlink:href="#aR"/><use transform="matrix(0.04248971193415638,0,0,0.04248971193415638,21.20236625514403,0)" xlink:href="#aY"/></g><path fill="#a9afb8" d="M101-251c82-7 93 87 43 132L82-64C71-53 59-42 53-27h129V0H18c2-99 128-94 128-182 0-28-16-43-45-43s-46 15-49 41l-32-3c6-41 34-60 81-64" id="aZ"/><path fill="#a9afb8" d="M27 0v-27h64v-190l-56 39v-29l58-41h29v221h61V0H27" id="ba"/><path fill="#a9afb8" d="M68-38c1 34 0 65-14 84H32c9-13 17-26 17-46H33v-38h35" id="bb"/><g id="A"><use transform="matrix(0.04248971193415638,0,0,0.04248971193415638,0,0)" xlink:href="#aZ"/><use transform="matrix(0.04248971193415638,0,0,0.04248971193415638,8.497942386831275,0)" xlink:href="#ba"/><use transform="matrix(0.04248971193415638,0,0,0.04248971193415638,16.99588477366255,0)" xlink:href="#bb"/></g><path fill="#a9afb8" d="M101-251c68 0 85 55 85 127S166 4 100 4C33 4 14-52 14-124c0-73 17-127 87-127zm-1 229c47 0 54-49 54-102s-4-102-53-102c-51 0-55 48-55 102 0 53 5 102 54 102" id="bc"/><path fill="#a9afb8" d="M126-127c33 6 58 20 58 59 0 88-139 92-164 29-3-8-5-16-6-25l32-3c6 27 21 44 54 44 32 0 52-15 52-46 0-38-36-46-79-43v-28c39 1 72-4 72-42 0-27-17-43-46-43-28 0-47 15-49 41l-32-3c6-42 35-63 81-64 48-1 79 21 79 65 0 36-21 52-52 59" id="bd"/><g id="B"><use transform="matrix(0.04248971193415638,0,0,0.04248971193415638,0,0)" xlink:href="#aZ"/><use transform="matrix(0.04248971193415638,0,0,0.04248971193415638,8.497942386831275,0)" xlink:href="#bc"/><use transform="matrix(0.04248971193415638,0,0,0.04248971193415638,16.99588477366255,0)" xlink:href="#aZ"/><use transform="matrix(0.04248971193415638,0,0,0.04248971193415638,25.493827160493822,0)" xlink:href="#bd"/></g><path fill="#333" d="M24-248c93 1 206-16 204 79-1 75-69 88-152 82V0H24v-248zm52 121c47 0 100 7 100-41 0-47-54-39-100-39v80" id="be"/><path fill="#333" d="M110-194c64 0 96 36 96 99 0 64-35 99-97 99-61 0-95-36-95-99 0-62 34-99 96-99zm-1 164c35 0 45-28 45-65 0-40-10-65-43-65-34 0-45 26-45 65 0 36 10 65 43 65" id="bf"/><path fill="#333" d="M220-157c-53 9-28 100-34 157h-49v-107c1-27-5-49-29-50C55-147 81-57 75 0H25l-1-190h47c2 12-1 28 3 38 10-53 101-56 108 0 13-22 24-43 59-42 82 1 51 116 57 194h-49v-107c-1-25-5-48-29-50" id="bg"/><path fill="#333" d="M135-194c53 0 70 44 70 98 0 56-19 98-73 100-31 1-45-17-59-34 3 33 2 69 2 105H25l-1-265h48c2 10 0 23 3 31 11-24 29-35 60-35zM114-30c33 0 39-31 40-66 0-38-9-64-40-64-56 0-55 130 0 130" id="bh"/><path fill="#333" d="M115-3C79 11 28 4 28-45v-112H4v-33h27l15-45h31v45h36v33H77v99c-1 23 16 31 38 25v30" id="bi"/><g id="C"><use transform="matrix(0.05,0,0,0.05,0,0)" xlink:href="#be"/><use transform="matrix(0.05,0,0,0.05,12,0)" xlink:href="#O"/><use transform="matrix(0.05,0,0,0.05,19,0)" xlink:href="#bf"/><use transform="matrix(0.05,0,0,0.05,29.950000000000003,0)" xlink:href="#bg"/><use transform="matrix(0.05,0,0,0.05,45.95,0)" xlink:href="#bh"/><use transform="matrix(0.05,0,0,0.05,56.900000000000006,0)" xlink:href="#bi"/></g><g id="D"><use transform="matrix(0.05,0,0,0.05,0,0)" xlink:href="#ag"/><use transform="matrix(0.05,0,0,0.05,10,0)" xlink:href="#ah"/><use transform="matrix(0.05,0,0,0.05,15.949999999999998,0)" xlink:href="#al"/><use transform="matrix(0.05,0,0,0.05,25.950000000000003,0)" xlink:href="#ai"/><use transform="matrix(0.05,0,0,0.05,35.95,0)" xlink:href="#ak"/><use transform="matrix(0.05,0,0,0.05,45.95,0)" xlink:href="#V"/><use transform="matrix(0.05,0,0,0.05,49.900000000000006,0)" xlink:href="#as"/><use transform="matrix(0.05,0,0,0.05,58.900000000000006,0)" xlink:href="#X"/><use transform="matrix(0.05,0,0,0.05,68.9,0)" xlink:href="#ah"/><use transform="matrix(0.05,0,0,0.05,74.85000000000001,0)" xlink:href="#ad"/></g><path fill="#333" d="M63-220v92h138v28H63V0H30v-248h175v28H63" id="bj"/><path fill="#333" d="M140-251c81 0 123 46 123 126C263-46 219 4 140 4 59 4 17-45 17-125s42-126 123-126zm0 227c63 0 89-41 89-101s-29-99-89-99c-61 0-89 39-89 99S79-25 140-24" id="bk"/><g id="E"><use transform="matrix(0.05,0,0,0.05,0,0)" xlink:href="#bj"/><use transform="matrix(0.05,0,0,0.05,10.950000000000001,0)" xlink:href="#V"/><use transform="matrix(0.05,0,0,0.05,14.9,0)" xlink:href="#W"/><use transform="matrix(0.05,0,0,0.05,18.85,0)" xlink:href="#X"/><use transform="matrix(0.05,0,0,0.05,28.85,0)" xlink:href="#bk"/><use transform="matrix(0.05,0,0,0.05,42.85,0)" xlink:href="#ah"/><use transform="matrix(0.05,0,0,0.05,48.800000000000004,0)" xlink:href="#al"/><use transform="matrix(0.05,0,0,0.05,58.800000000000004,0)" xlink:href="#ai"/><use transform="matrix(0.05,0,0,0.05,68.80000000000001,0)" xlink:href="#ak"/><use transform="matrix(0.05,0,0,0.05,78.80000000000001,0)" xlink:href="#V"/><use transform="matrix(0.05,0,0,0.05,82.75000000000001,0)" xlink:href="#as"/><use transform="matrix(0.05,0,0,0.05,91.75000000000001,0)" xlink:href="#X"/><use transform="matrix(0.05,0,0,0.05,101.75000000000001,0)" xlink:href="#ah"/></g><use transform="matrix(0.05,0,0,0.05,0,0)" xlink:href="#am" id="F"/><g id="G"><use transform="matrix(0.05,0,0,0.05,0,0)" xlink:href="#ai"/><use transform="matrix(0.05,0,0,0.05,10,0)" xlink:href="#ac"/><use transform="matrix(0.05,0,0,0.05,19,0)" xlink:href="#an"/><use transform="matrix(0.05,0,0,0.05,28,0)" xlink:href="#Y"/><use transform="matrix(0.05,0,0,0.05,38,0)" xlink:href="#Z"/><use transform="matrix(0.05,0,0,0.05,43,0)" xlink:href="#ai"/><use transform="matrix(0.05,0,0,0.05,53,0)" xlink:href="#ac"/><use transform="matrix(0.05,0,0,0.05,62,0)" xlink:href="#an"/><use transform="matrix(0.05,0,0,0.05,71,0)" xlink:href="#ap"/><use transform="matrix(0.05,0,0,0.05,76.95,0)" xlink:href="#aq"/></g><g id="H"><use transform="matrix(0.05,0,0,0.05,0,0)" xlink:href="#af"/><use transform="matrix(0.05,0,0,0.05,9,0)" xlink:href="#ag"/><use transform="matrix(0.05,0,0,0.05,19,0)" xlink:href="#ak"/><use transform="matrix(0.05,0,0,0.05,29,0)" xlink:href="#U"/><use transform="matrix(0.05,0,0,0.05,34,0)" xlink:href="#V"/><use transform="matrix(0.05,0,0,0.05,37.95,0)" xlink:href="#ah"/><use transform="matrix(0.05,0,0,0.05,43.900000000000006,0)" xlink:href="#ao"/><use transform="matrix(0.05,0,0,0.05,58.85,0)" xlink:href="#Y"/><use transform="matrix(0.05,0,0,0.05,68.85000000000001,0)" xlink:href="#Z"/><use transform="matrix(0.05,0,0,0.05,73.85000000000001,0)" xlink:href="#ai"/><use transform="matrix(0.05,0,0,0.05,83.85000000000001,0)" xlink:href="#ac"/><use transform="matrix(0.05,0,0,0.05,92.85000000000001,0)" xlink:href="#an"/><use transform="matrix(0.05,0,0,0.05,101.85000000000001,0)" xlink:href="#ap"/><use transform="matrix(0.05,0,0,0.05,107.80000000000001,0)" xlink:href="#Z"/><use transform="matrix(0.05,0,0,0.05,112.80000000000001,0)" xlink:href="#ai"/><use transform="matrix(0.05,0,0,0.05,122.80000000000001,0)" xlink:href="#ac"/><use transform="matrix(0.05,0,0,0.05,131.8,0)" xlink:href="#an"/><use transform="matrix(0.05,0,0,0.05,140.8,0)" xlink:href="#aq"/><use transform="matrix(0.05,0,0,0.05,146.75,0)" xlink:href="#ad"/></g><g id="I"><use transform="matrix(0.05,0,0,0.05,0,0)" xlink:href="#at"/><use transform="matrix(0.05,0,0,0.05,10,0)" xlink:href="#ag"/><use transform="matrix(0.05,0,0,0.05,20,0)" xlink:href="#ag"/><use transform="matrix(0.05,0,0,0.05,30,0)" xlink:href="#W"/></g></defs></g></svg>